<?xml version="1.0" encoding="UTF-8"?><svg id="T_100px" xmlns="http://www.w3.org/2000/svg" viewBox="0 0 2000 300.81"><defs><style>.cls-1{fill:#fff;}</style></defs><polygon class="cls-1" points="2.83 49.36 133.38 49.36 133.38 295.54 169.52 295.54 169.52 49.36 300.06 49.36 300.06 2.83 2.83 2.83 2.83 49.36"/><path class="cls-1" d="m1392.3,90.92c0-52.4-41.56-88.08-105.25-88.08h-176.62v292.71h36.14v-117.9h124.22l92.6,117.9h45.62l-97.12-119.7c49.69-8.13,80.41-40.65,80.41-84.92Zm-245.73,42.46V49.36h144.1c42.01,0,69.11,15.36,69.11,42.01s-27.1,42.01-69.11,42.01h-144.1Z"/><polygon class="cls-1" points="1960.58 2.83 1960.58 240.89 1727.94 2.83 1681.87 2.83 1681.87 295.54 1718.46 295.54 1718.46 57.94 1950.19 295.54 1997.17 295.54 1997.17 2.83 1960.58 2.83"/><polygon class="cls-1" points="606.32 166.35 815.01 166.35 815.01 122.09 606.32 122.09 606.32 49.36 834.44 49.36 834.44 2.83 570.19 2.83 570.19 295.54 840.31 295.54 840.31 249.02 606.32 249.02 606.32 166.35"/></svg>